<?xml version="1.0" encoding="UTF-8"?>
<svg width="1200pt" height="1200pt" version="1.1" viewBox="0 0 1200 1200"
    xmlns="http://www.w3.org/2000/svg">
    <g fill="#fff">
        <path d="m1143.8 37.5h-937.5c-4.9727 0-9.7422 1.9766-13.258 5.4922l-149.99 149.99c-3.5273 3.5117-5.5078 8.2891-5.5 13.266v937.5c0 4.9727 1.9766 9.7422 5.4922 13.258 3.5156 3.5156 8.2852 5.4922 13.258 5.4922h937.5c4.9805 0.007812 9.7539-1.9727 13.266-5.5l149.99-149.99c3.5156-3.5156 5.4922-8.2852 5.4922-13.258v-937.5c0-4.9727-1.9766-9.7422-5.4922-13.258-3.5156-3.5156-8.2852-5.4922-13.258-5.4922zm-168.75 937.5h-90.586l-146.87-186.03 51.418-51.418 186.04 146.86zm37.5-60.98 77.238 60.98h-77.238zm-787.5-689.02h90.586l146.87 186.03-51.418 51.418-186.04-146.86zm-37.5 60.98-77.242-60.98h77.242zm37.5-98.48v-77.242l60.98 77.242zm506.25 307.77 37.5-37.5v246.97l-37.5 37.5zm48.484-101.52h-283.15l-133.22-168.75h585.12zm-348.48 112.5h262.5v262.5h-262.5zm26.516-37.5 37.5-37.5h246.97l-37.5 37.5zm348.48 234.66v-283.15l168.75-168.75v585.12zm179.73-515.91h-652.23l-88.816-112.5h853.54zm-798.48 0h-85.984l85.984-85.984zm-112.5 57.441 112.5 88.816v78.742h37.5v-49.137l168.75 133.22v283.15l-168.75 168.75v-48.484h-37.5v85.984l-112.5 112.5zm139.02 767.56h85.984v-37.5h-48.484l168.75-168.75h283.15l133.22 168.75h-49.137v37.5h78.742l88.816 112.5h-853.54zm700 0h60.98v77.238zm98.48 0h85.984l-85.984 85.984zm0-146.26v-652.23l112.5-112.5v853.54z"/>
        <path d="m337.5 975h37.5v37.5h-37.5z"/>
        <path d="m412.5 975h37.5v37.5h-37.5z"/>
        <path d="m487.5 975h37.5v37.5h-37.5z"/>
        <path d="m562.5 975h37.5v37.5h-37.5z"/>
        <path d="m637.5 975h37.5v37.5h-37.5z"/>
        <path d="m712.5 975h37.5v37.5h-37.5z"/>
        <path d="m187.5 825h37.5v37.5h-37.5z"/>
        <path d="m187.5 750h37.5v37.5h-37.5z"/>
        <path d="m187.5 675h37.5v37.5h-37.5z"/>
        <path d="m187.5 600h37.5v37.5h-37.5z"/>
        <path d="m187.5 525h37.5v37.5h-37.5z"/>
        <path d="m187.5 450h37.5v37.5h-37.5z"/>
    </g>
</svg>
